<svg t="1569771729930" class="icon" viewBox="0 0 1024 1024" version="1.1" xmlns="http://www.w3.org/2000/svg" p-id="1106" width="200" height="200"><path d="M554.666667 981.430656C554.666667 1004.941056 535.728427 1024 512 1024L512 1024C488.43584 1024 469.333333 1004.744491 469.333333 981.429632L469.333333 141.384875 218.411008 392.3072C201.803136 408.915115 174.948437 408.987093 158.169899 392.208555L158.169899 392.208555C141.507499 375.546197 141.600597 348.438101 158.182016 331.85664L474.943232 15.095424C483.129771 6.908928 499.405824 0 510.960768 0 524.629675 0 540.698496 6.758443 549.035477 15.095424L865.796693 331.85664C882.465749 348.525739 882.587349 375.430016 865.808811 392.208555L865.808811 392.208555C849.146453 408.870912 822.08704 408.826581 805.569963 392.309504L554.666667 141.406165 554.666667 981.430656Z" p-id="1107"></path></svg>